<svg xmlns="http://www.w3.org/2000/svg" width="1138" height="132" fill="none" viewBox="0 0 1138 132">
    <g fill="#379ECA" opacity=".07">
        <path d="M22.006 81.77l-5.8-5.971-5.8 5.97-5.914-6.084.228-.17 5.686 5.8 5.8-5.914 5.8 5.914 5.8-5.914 5.8 5.914L39.35 75.4l5.8 5.914 5.8-5.914 5.8 5.914 5.8-5.914 5.915 6.027-.228.228-5.686-5.857-5.8 5.97-5.8-5.97-5.8 5.97-5.8-5.97-5.744 5.97-5.8-5.97-5.8 5.97zM99.966 71.876h-.569V87.97h.57V71.876z"/>
        <path d="M109.178 76.823l-17.57 3.355v-.57l17.57-3.354M68.805 19.504h-.285v8.302h.285v-8.302z"/>
        <path d="M72.785 23.541h-8.302v.285h8.302v-.285zM21.494 0l-1.421 20.698h17.343L38.838 0"/>
        <path d="M38.269.569L36.847 20.13H20.641L22.063.569M62.095 131.071l-1.478-13.988H43.33l1.422 13.988"/>
        <path d="M45.32 130.502L43.9 117.651h16.149l1.478 12.851M77.246 106.034l-2.775-2.775-2.774 2.775 2.774 2.774 2.775-2.774zM83.73 106.027l-2.774-2.774-2.774 2.774 2.774 2.774 2.775-2.774zM90.216 106.019l-2.774-2.774-2.775 2.774 2.775 2.775 2.774-2.775zM99.398 26.05l2.775-2.774-2.775-2.774-2.774 2.774L99.4 26.05zM99.405 32.55l2.775-2.775-2.775-2.774-2.774 2.774 2.774 2.775zM99.372 39.009l2.775-2.775-2.775-2.774-2.774 2.774 2.774 2.775zM55.442 31.958c-.626 0-1.08-.512-1.08-1.08 0-.626.511-1.081 1.08-1.081.626 0 1.08.512 1.08 1.08 0 .626-.511 1.08-1.08 1.08zM55.442 35.71c.597 0 1.08-.483 1.08-1.08 0-.597-.483-1.08-1.08-1.08-.597 0-1.08.483-1.08 1.08 0 .597.483 1.08 1.08 1.08zM55.442 39.464c.597 0 1.08-.484 1.08-1.08 0-.597-.483-1.08-1.08-1.08-.597 0-1.08.483-1.08 1.08 0 .596.483 1.08 1.08 1.08zM55.442 43.217c.597 0 1.08-.484 1.08-1.08 0-.597-.483-1.081-1.08-1.081-.597 0-1.08.484-1.08 1.08 0 .597.483 1.08 1.08 1.08zM55.442 46.97c.597 0 1.08-.484 1.08-1.08 0-.597-.483-1.08-1.08-1.08-.597 0-1.08.483-1.08 1.08 0 .596.483 1.08 1.08 1.08zM55.442 50.723c.597 0 1.08-.484 1.08-1.08 0-.597-.483-1.081-1.08-1.081-.597 0-1.08.484-1.08 1.08 0 .597.483 1.08 1.08 1.08zM80.917 41.624L67.099 57.091H94.79L80.917 41.624z"/>
        <path d="M80.917 48.391L66.7 64.256h28.432L80.917 48.391zm0 .512l13.477 15.069h-27.01l13.533-15.069zM41.795 100.762l-11.26-10.121v20.186l11.26-10.065z"/>
        <path d="M36.847 100.762L25.304 90.413v20.698l11.543-10.349zm-.34 0L25.531 110.6V90.925l10.974 9.837zM34.346 44.865h-21.78V23.086H4.493V52.94h29.854v-8.075zM5.06 23.655h6.937v21.779h21.779v6.937H5.06V23.655zM94.507 90.413H82.338V78.244H77.79v16.718h16.718v-4.55zM78.13 78.585h3.867v12.17h12.169v3.866H78.131V78.585zM0 120.551c6.767 0 10.804-2.161 10.804-8.928 0-6.767-4.037-15.637-10.804-15.637"/>
        <path d="M0 98.317c5.459 0 8.473 7.79 8.473 13.306 0 5.459-3.014 6.596-8.473 6.596M113.727 95.986c-6.767 0-13.704 8.87-13.704 15.637 0 6.767 6.937 8.928 13.704 8.928"/>
        <path d="M113.727 118.219c-5.459 0-11.373-1.08-11.373-6.596 0-5.459 5.914-13.306 11.373-13.306M53.338 61.355c0-4.662-3.753-8.415-8.416-8.415s-8.416 3.753-8.416 8.416c0 4.662 3.753 8.415 8.416 8.415 4.606 0 8.416-3.753 8.416-8.416zm-1.65 0c0 3.754-3.07 6.824-6.823 6.824-3.753 0-6.823-3.07-6.823-6.824 0-3.752 3.07-6.823 6.823-6.823 3.81 0 6.824 3.07 6.824 6.824z"/>
        <path d="M47.88 61.356c0 1.649-1.309 2.956-2.958 2.956-1.649 0-2.957-1.307-2.957-2.956 0-1.65 1.308-2.957 2.957-2.957 1.65 0 2.957 1.307 2.957 2.957z"/>
        <path d="M48.05 61.355c0-1.706-1.422-3.127-3.128-3.127-1.706 0-3.127 1.421-3.127 3.127 0 1.706 1.421 3.128 3.127 3.128 1.706 0 3.128-1.365 3.128-3.128zm-.341 0c0 1.536-1.252 2.843-2.844 2.843-1.592 0-2.843-1.25-2.843-2.843 0-1.535 1.251-2.843 2.843-2.843 1.593 0 2.843 1.308 2.843 2.843zM32.412 32.184c0 1.365-1.08 2.446-2.445 2.446-1.365 0-2.445-1.08-2.445-2.446 0-1.364 1.08-2.445 2.445-2.445 1.365.057 2.445 1.138 2.445 2.445zM82.395 22.574c.88 0 1.592-.713 1.592-1.592 0-.88-.712-1.592-1.592-1.592-.88 0-1.592.713-1.592 1.592 0 .88.713 1.592 1.592 1.592zM59.081 97.806c.88 0 1.592-.713 1.592-1.593 0-.879-.712-1.592-1.592-1.592-.88 0-1.592.713-1.592 1.593 0 .879.713 1.592 1.592 1.592zM135.733 81.77l-5.8-5.971-5.8 5.97-5.914-6.084.228-.17 5.686 5.8 5.8-5.914 5.8 5.914 5.8-5.914 5.8 5.914 5.744-5.914 5.8 5.914 5.8-5.914 5.8 5.914 5.8-5.914 5.914 6.027-.228.228-5.686-5.857-5.8 5.97-5.8-5.97-5.8 5.97-5.8-5.97-5.744 5.97-5.8-5.97-5.8 5.97zM213.693 71.876h-.568V87.97h.568V71.876z"/>
        <path d="M222.905 76.823l-17.571 3.355v-.57l17.571-3.354M182.532 19.504h-.284v8.302h.284v-8.302z"/>
        <path d="M186.512 23.541h-8.302v.285h8.302v-.285zM135.221 0L133.8 20.698h17.343L152.565 0"/>
        <path d="M151.996.569l-1.421 19.561h-16.207L135.79.569M175.822 131.071l-1.478-13.988h-17.287l1.422 13.988"/>
        <path d="M159.047 130.502l-1.421-12.851h16.149l1.478 12.851M190.973 106.034l-2.775-2.775-2.774 2.775 2.774 2.774 2.775-2.774zM197.458 106.027l-2.775-2.774-2.774 2.774 2.774 2.774 2.775-2.774zM203.943 106.019l-2.774-2.774-2.775 2.774 2.775 2.775 2.774-2.775zM213.126 26.05l2.774-2.774-2.774-2.774-2.775 2.774 2.775 2.774zM213.132 32.55l2.775-2.775-2.775-2.774-2.774 2.774 2.774 2.775zM213.099 39.009l2.775-2.775-2.775-2.774-2.774 2.774 2.774 2.775zM169.169 31.958c-.625 0-1.08-.512-1.08-1.08 0-.626.511-1.081 1.08-1.081.626 0 1.08.512 1.08 1.08 0 .626-.511 1.08-1.08 1.08zM169.169 35.71c.597 0 1.08-.483 1.08-1.08 0-.597-.483-1.08-1.08-1.08-.597 0-1.08.483-1.08 1.08 0 .597.483 1.08 1.08 1.08zM169.169 39.464c.597 0 1.08-.484 1.08-1.08 0-.597-.483-1.08-1.08-1.08-.597 0-1.08.483-1.08 1.08 0 .596.483 1.08 1.08 1.08zM169.169 43.217c.597 0 1.08-.484 1.08-1.08 0-.597-.483-1.081-1.08-1.081-.597 0-1.08.484-1.08 1.08 0 .597.483 1.08 1.08 1.08zM169.169 46.97c.597 0 1.08-.484 1.08-1.08 0-.597-.483-1.08-1.08-1.08-.597 0-1.08.483-1.08 1.08 0 .596.483 1.08 1.08 1.08zM169.169 50.723c.597 0 1.08-.484 1.08-1.08 0-.597-.483-1.081-1.08-1.081-.597 0-1.08.484-1.08 1.08 0 .597.483 1.08 1.08 1.08zM194.644 41.624l-13.818 15.467h27.692l-13.874-15.467z"/>
        <path d="M194.644 48.391l-14.216 15.865h28.432l-14.216-15.865zm0 .512l13.477 15.069H181.11l13.534-15.069zM155.522 100.762l-11.259-10.121v20.186l11.259-10.065z"/>
        <path d="M150.575 100.762l-11.544-10.349v20.698l11.544-10.349zm-.342 0l-10.974 9.838V90.925l10.974 9.837zM148.073 44.865h-21.779V23.086h-8.075V52.94h29.854v-8.075zm-29.285-21.21h6.937v21.779h21.779v6.937h-28.716V23.655zM208.234 90.413h-12.169V78.244h-4.549v16.718h16.718v-4.55zm-16.376-11.828h3.866v12.17h12.169v3.866h-16.035V78.585zM113.727 120.551c6.767 0 10.804-2.161 10.804-8.928 0-6.767-4.037-15.637-10.804-15.637"/>
        <path d="M113.727 98.317c5.459 0 8.473 7.79 8.473 13.306 0 5.459-3.014 6.596-8.473 6.596M227.454 95.986c-6.767 0-13.704 8.87-13.704 15.637 0 6.767 6.937 8.928 13.704 8.928"/>
        <path d="M227.454 118.219c-5.459 0-11.373-1.08-11.373-6.596 0-5.459 5.914-13.306 11.373-13.306M167.065 61.355c0-4.662-3.753-8.415-8.416-8.415s-8.416 3.753-8.416 8.416c0 4.662 3.753 8.415 8.416 8.415 4.606 0 8.416-3.753 8.416-8.416zm-1.649 0c0 3.754-3.071 6.824-6.824 6.824-3.753 0-6.823-3.07-6.823-6.824 0-3.752 3.07-6.823 6.823-6.823 3.81 0 6.824 3.07 6.824 6.824z"/>
        <path d="M161.606 61.356c0 1.649-1.308 2.956-2.957 2.956-1.649 0-2.957-1.307-2.957-2.956 0-1.65 1.308-2.957 2.957-2.957 1.649 0 2.957 1.307 2.957 2.957z"/>
        <path d="M161.777 61.355c0-1.706-1.422-3.127-3.128-3.127-1.706 0-3.127 1.421-3.127 3.127 0 1.706 1.421 3.128 3.127 3.128 1.706 0 3.128-1.365 3.128-3.128zm-.341 0c0 1.536-1.251 2.843-2.844 2.843-1.592 0-2.843-1.25-2.843-2.843 0-1.535 1.251-2.843 2.843-2.843 1.593 0 2.844 1.308 2.844 2.843zM146.139 32.184c0 1.365-1.08 2.446-2.445 2.446-1.365 0-2.445-1.08-2.445-2.446 0-1.364 1.08-2.445 2.445-2.445 1.365.057 2.445 1.138 2.445 2.445zM196.122 22.574c.88 0 1.592-.713 1.592-1.592 0-.88-.712-1.592-1.592-1.592-.879 0-1.592.713-1.592 1.592 0 .88.713 1.592 1.592 1.592zM172.808 97.806c.88 0 1.592-.713 1.592-1.593 0-.879-.712-1.592-1.592-1.592-.879 0-1.592.713-1.592 1.593 0 .879.713 1.592 1.592 1.592zM249.46 81.77l-5.8-5.971-5.8 5.97-5.914-6.084.228-.17 5.686 5.8 5.8-5.914 5.8 5.914 5.8-5.914 5.8 5.914 5.744-5.914 5.8 5.914 5.8-5.914 5.8 5.914 5.8-5.914 5.914 6.027-.228.228-5.686-5.857-5.8 5.97-5.8-5.97-5.8 5.97-5.8-5.97-5.744 5.97-5.8-5.97-5.8 5.97zM327.42 71.876h-.568V87.97h.568V71.876z"/>
        <path d="M336.632 76.823l-17.571 3.355v-.57l17.571-3.354M296.259 19.504h-.284v8.302h.284v-8.302z"/>
        <path d="M300.239 23.541h-8.302v.285h8.302v-.285zM248.948 0l-1.421 20.698h17.343L266.292 0"/>
        <path d="M265.723.569l-1.421 19.561h-16.207L249.517.569M289.549 131.071l-1.478-13.988h-17.287l1.422 13.988"/>
        <path d="M272.774 130.502l-1.421-12.851h16.149l1.478 12.851M304.7 106.034l-2.775-2.775-2.774 2.775 2.774 2.774 2.775-2.774zM311.185 106.027l-2.775-2.774-2.774 2.774 2.774 2.774 2.775-2.774zM317.67 106.019l-2.774-2.774-2.775 2.774 2.775 2.775 2.774-2.775zM326.853 26.05l2.774-2.774-2.774-2.774-2.775 2.774 2.775 2.774zM326.859 32.55l2.775-2.775-2.775-2.774-2.774 2.774 2.774 2.775zM326.826 39.009l2.775-2.775-2.775-2.774-2.774 2.774 2.774 2.775zM282.896 31.958c-.625 0-1.08-.512-1.08-1.08 0-.626.511-1.081 1.08-1.081.626 0 1.08.512 1.08 1.08 0 .626-.511 1.08-1.08 1.08zM282.896 35.71c.597 0 1.08-.483 1.08-1.08 0-.597-.483-1.08-1.08-1.08-.597 0-1.08.483-1.08 1.08 0 .597.483 1.08 1.08 1.08zM282.896 39.464c.597 0 1.08-.484 1.08-1.08 0-.597-.483-1.08-1.08-1.08-.597 0-1.08.483-1.08 1.08 0 .596.483 1.08 1.08 1.08zM282.896 43.217c.597 0 1.08-.484 1.08-1.08 0-.597-.483-1.081-1.08-1.081-.597 0-1.08.484-1.08 1.08 0 .597.483 1.08 1.08 1.08zM282.896 46.97c.597 0 1.08-.484 1.08-1.08 0-.597-.483-1.08-1.08-1.08-.597 0-1.08.483-1.08 1.08 0 .596.483 1.08 1.08 1.08zM282.896 50.723c.597 0 1.08-.484 1.08-1.08 0-.597-.483-1.081-1.08-1.081-.597 0-1.08.484-1.08 1.08 0 .597.483 1.08 1.08 1.08zM308.371 41.624l-13.818 15.467h27.693l-13.875-15.467z"/>
        <path d="M308.371 48.391l-14.216 15.865h28.432l-14.216-15.865zm0 .512l13.477 15.069h-27.011l13.534-15.069zM269.249 100.762L257.99 90.641v20.186l11.259-10.065z"/>
        <path d="M264.302 100.762l-11.544-10.349v20.698l11.544-10.349zm-.342 0l-10.974 9.838V90.925l10.974 9.837zM261.8 44.865h-21.779V23.086h-8.075V52.94H261.8v-8.075zm-29.285-21.21h6.937v21.779h21.779v6.937h-28.716V23.655zM321.961 90.413h-12.169V78.244h-4.549v16.718h16.718v-4.55zm-16.376-11.828h3.866v12.17h12.169v3.866h-16.035V78.585zM227.454 120.551c6.767 0 10.804-2.161 10.804-8.928 0-6.767-4.037-15.637-10.804-15.637"/>
        <path d="M227.454 98.317c5.459 0 8.473 7.79 8.473 13.306 0 5.459-3.014 6.596-8.473 6.596M341.181 95.986c-6.767 0-13.704 8.87-13.704 15.637 0 6.767 6.937 8.928 13.704 8.928"/>
        <path d="M341.181 118.219c-5.459 0-11.373-1.08-11.373-6.596 0-5.459 5.914-13.306 11.373-13.306M280.792 61.355c0-4.662-3.753-8.415-8.416-8.415s-8.416 3.753-8.416 8.416c0 4.662 3.753 8.415 8.416 8.415 4.606 0 8.416-3.753 8.416-8.416zm-1.649 0c0 3.754-3.071 6.824-6.824 6.824-3.753 0-6.823-3.07-6.823-6.824 0-3.752 3.07-6.823 6.823-6.823 3.81 0 6.824 3.07 6.824 6.824z"/>
        <path d="M275.333 61.356c0 1.649-1.308 2.956-2.957 2.956-1.649 0-2.957-1.307-2.957-2.956 0-1.65 1.308-2.957 2.957-2.957 1.649 0 2.957 1.307 2.957 2.957z"/>
        <path d="M275.504 61.355c0-1.706-1.422-3.127-3.128-3.127-1.706 0-3.127 1.421-3.127 3.127 0 1.706 1.421 3.128 3.127 3.128 1.706 0 3.128-1.365 3.128-3.128zm-.341 0c0 1.536-1.251 2.843-2.844 2.843-1.592 0-2.843-1.25-2.843-2.843 0-1.535 1.251-2.843 2.843-2.843 1.593 0 2.844 1.308 2.844 2.843zM259.866 32.184c0 1.365-1.08 2.446-2.445 2.446-1.365 0-2.445-1.08-2.445-2.446 0-1.364 1.08-2.445 2.445-2.445 1.365.057 2.445 1.138 2.445 2.445zM309.849 22.574c.88 0 1.592-.713 1.592-1.592 0-.88-.712-1.592-1.592-1.592-.879 0-1.592.713-1.592 1.592 0 .88.713 1.592 1.592 1.592zM286.535 97.806c.88 0 1.592-.713 1.592-1.593 0-.879-.712-1.592-1.592-1.592-.879 0-1.592.713-1.592 1.593 0 .879.713 1.592 1.592 1.592zM363.187 81.77l-5.8-5.971-5.8 5.97-5.914-6.084.228-.17 5.686 5.8 5.8-5.914 5.8 5.914 5.8-5.914 5.8 5.914 5.744-5.914 5.8 5.914 5.8-5.914 5.8 5.914 5.8-5.914 5.914 6.027-.228.228-5.686-5.857-5.8 5.97-5.8-5.97-5.8 5.97-5.8-5.97-5.744 5.97-5.8-5.97-5.8 5.97zM441.147 71.876h-.568V87.97h.568V71.876z"/>
        <path d="M450.359 76.823l-17.571 3.355v-.57l17.571-3.354M409.986 19.504h-.284v8.302h.284v-8.302z"/>
        <path d="M413.966 23.541h-8.302v.285h8.302v-.285zM362.675 0l-1.421 20.698h17.343L380.019 0"/>
        <path d="M379.45.569l-1.421 19.561h-16.206L363.244.569M403.276 131.071l-1.478-13.988h-17.287l1.422 13.988"/>
        <path d="M386.501 130.502l-1.421-12.851h16.149l1.479 12.851M418.427 106.034l-2.775-2.775-2.774 2.775 2.774 2.774 2.775-2.774zM424.912 106.027l-2.774-2.774-2.775 2.774 2.775 2.774 2.774-2.774zM431.397 106.019l-2.774-2.774-2.775 2.774 2.775 2.775 2.774-2.775zM440.58 26.05l2.774-2.774-2.774-2.774-2.775 2.774 2.775 2.774zM440.586 32.55l2.775-2.775-2.775-2.774-2.774 2.774 2.774 2.775zM440.554 39.009l2.774-2.775-2.774-2.774-2.775 2.774 2.775 2.775zM396.623 31.958c-.625 0-1.08-.512-1.08-1.08 0-.626.511-1.081 1.08-1.081.626 0 1.081.512 1.081 1.08 0 .626-.512 1.08-1.081 1.08zM396.623 35.71c.597 0 1.081-.483 1.081-1.08 0-.597-.484-1.08-1.081-1.08s-1.08.483-1.08 1.08c0 .597.483 1.08 1.08 1.08zM396.623 39.464c.597 0 1.081-.484 1.081-1.08 0-.597-.484-1.08-1.081-1.08s-1.08.483-1.08 1.08c0 .596.483 1.08 1.08 1.08zM396.623 43.217c.597 0 1.081-.484 1.081-1.08 0-.597-.484-1.081-1.081-1.081s-1.08.484-1.08 1.08c0 .597.483 1.08 1.08 1.08zM396.623 46.97c.597 0 1.081-.484 1.081-1.08 0-.597-.484-1.08-1.081-1.08s-1.08.483-1.08 1.08c0 .596.483 1.08 1.08 1.08zM396.623 50.723c.597 0 1.081-.484 1.081-1.08 0-.597-.484-1.081-1.081-1.081s-1.08.484-1.08 1.08c0 .597.483 1.08 1.08 1.08zM422.098 41.624L408.28 57.091h27.693l-13.875-15.467z"/>
        <path d="M422.098 48.391l-14.216 15.865h28.432l-14.216-15.865zm0 .512l13.477 15.069h-27.011l13.534-15.069zM382.976 100.762l-11.259-10.121v20.186l11.259-10.065z"/>
        <path d="M378.029 100.762l-11.544-10.349v20.698l11.544-10.349zm-.342 0l-10.974 9.838V90.925l10.974 9.837zM375.527 44.865h-21.779V23.086h-8.075V52.94h29.854v-8.075zm-29.285-21.21h6.937v21.779h21.779v6.937h-28.716V23.655zM435.688 90.413H423.52V78.244h-4.55v16.718h16.718v-4.55zm-16.376-11.828h3.866v12.17h12.169v3.866h-16.035V78.585zM341.181 120.551c6.767 0 10.804-2.161 10.804-8.928 0-6.767-4.037-15.637-10.804-15.637"/>
        <path d="M341.181 98.317c5.459 0 8.473 7.79 8.473 13.306 0 5.459-3.014 6.596-8.473 6.596M454.908 95.986c-6.767 0-13.704 8.87-13.704 15.637 0 6.767 6.937 8.928 13.704 8.928"/>
        <path d="M454.908 118.219c-5.459 0-11.373-1.08-11.373-6.596 0-5.459 5.914-13.306 11.373-13.306M394.519 61.355c0-4.662-3.753-8.415-8.416-8.415s-8.415 3.753-8.415 8.416c0 4.662 3.752 8.415 8.415 8.415 4.606 0 8.416-3.753 8.416-8.416zm-1.649 0c0 3.754-3.071 6.824-6.824 6.824-3.753 0-6.823-3.07-6.823-6.824 0-3.752 3.07-6.823 6.823-6.823 3.81 0 6.824 3.07 6.824 6.824z"/>
        <path d="M389.06 61.356c0 1.649-1.308 2.956-2.957 2.956-1.649 0-2.957-1.307-2.957-2.956 0-1.65 1.308-2.957 2.957-2.957 1.649 0 2.957 1.307 2.957 2.957z"/>
        <path d="M389.231 61.355c0-1.706-1.422-3.127-3.128-3.127-1.706 0-3.127 1.421-3.127 3.127 0 1.706 1.421 3.128 3.127 3.128 1.706 0 3.128-1.365 3.128-3.128zm-.341 0c0 1.536-1.251 2.843-2.844 2.843-1.592 0-2.843-1.25-2.843-2.843 0-1.535 1.251-2.843 2.843-2.843 1.593 0 2.844 1.308 2.844 2.843zM373.593 32.184c0 1.365-1.08 2.446-2.445 2.446-1.364 0-2.445-1.08-2.445-2.446 0-1.364 1.081-2.445 2.445-2.445 1.365.057 2.445 1.138 2.445 2.445zM423.576 22.574c.88 0 1.592-.713 1.592-1.592 0-.88-.712-1.592-1.592-1.592-.879 0-1.592.713-1.592 1.592 0 .88.713 1.592 1.592 1.592zM400.262 97.806c.88 0 1.593-.713 1.593-1.593 0-.879-.713-1.592-1.593-1.592-.879 0-1.592.713-1.592 1.593 0 .879.713 1.592 1.592 1.592zM476.914 81.77l-5.8-5.971-5.8 5.97-5.914-6.084.228-.17 5.686 5.8 5.8-5.914 5.8 5.914 5.8-5.914 5.801 5.914 5.743-5.914 5.8 5.914 5.8-5.914 5.8 5.914 5.8-5.914 5.914 6.027-.228.228-5.686-5.857-5.8 5.97-5.8-5.97-5.8 5.97-5.8-5.97-5.743 5.97-5.801-5.97-5.8 5.97zM554.874 71.876h-.568V87.97h.568V71.876z"/>
        <path d="M564.086 76.823l-17.571 3.355v-.57l17.571-3.354M523.713 19.504h-.284v8.302h.284v-8.302z"/>
        <path d="M527.694 23.541h-8.302v.285h8.302v-.285zM476.403 0l-1.422 20.698h17.343L493.746 0"/>
        <path d="M493.177.569l-1.421 19.561H475.55L476.971.569M517.003 131.071l-1.478-13.988h-17.287l1.422 13.988"/>
        <path d="M500.228 130.502l-1.421-12.851h16.149l1.479 12.851M532.154 106.034l-2.775-2.775-2.774 2.775 2.774 2.774 2.775-2.774zM538.639 106.027l-2.774-2.774-2.775 2.774 2.775 2.774 2.774-2.774zM545.124 106.019l-2.774-2.774-2.775 2.774 2.775 2.775 2.774-2.775zM554.307 26.05l2.774-2.774-2.774-2.774-2.775 2.774 2.775 2.774zM554.314 32.55l2.774-2.775-2.774-2.774-2.775 2.774 2.775 2.775zM554.281 39.009l2.774-2.775-2.774-2.774-2.775 2.774 2.775 2.775zM510.35 31.958c-.625 0-1.08-.512-1.08-1.08 0-.626.512-1.081 1.08-1.081.626 0 1.081.512 1.081 1.08 0 .626-.512 1.08-1.081 1.08zM510.35 35.71c.597 0 1.081-.483 1.081-1.08 0-.597-.484-1.08-1.081-1.08s-1.08.483-1.08 1.08c0 .597.483 1.08 1.08 1.08zM510.35 39.464c.597 0 1.081-.484 1.081-1.08 0-.597-.484-1.08-1.081-1.08s-1.08.483-1.08 1.08c0 .596.483 1.08 1.08 1.08zM510.35 43.217c.597 0 1.081-.484 1.081-1.08 0-.597-.484-1.081-1.081-1.081s-1.08.484-1.08 1.08c0 .597.483 1.08 1.08 1.08zM510.35 46.97c.597 0 1.081-.484 1.081-1.08 0-.597-.484-1.08-1.081-1.08s-1.08.483-1.08 1.08c0 .596.483 1.08 1.08 1.08zM510.35 50.723c.597 0 1.081-.484 1.081-1.08 0-.597-.484-1.081-1.081-1.081s-1.08.484-1.08 1.08c0 .597.483 1.08 1.08 1.08zM535.825 41.624l-13.818 15.467H549.7l-13.875-15.467z"/>
        <path d="M535.825 48.391l-14.216 15.865h28.432l-14.216-15.865zm0 .512l13.477 15.069h-27.011l13.534-15.069zM496.703 100.762l-11.259-10.121v20.186l11.259-10.065z"/>
        <path d="M491.756 100.762l-11.544-10.349v20.698l11.544-10.349zm-.341 0L480.44 110.6V90.925l10.975 9.837zM489.254 44.865h-21.779V23.086H459.4V52.94h29.854v-8.075zm-29.285-21.21h6.937v21.779h21.779v6.937h-28.716V23.655zM549.415 90.413h-12.168V78.244h-4.549v16.718h16.717v-4.55zm-16.376-11.828h3.866v12.17h12.169v3.866h-16.035V78.585zM454.908 120.551c6.767 0 10.804-2.161 10.804-8.928 0-6.767-4.037-15.637-10.804-15.637"/>
        <path d="M454.908 98.317c5.459 0 8.473 7.79 8.473 13.306 0 5.459-3.014 6.596-8.473 6.596M568.635 95.986c-6.766 0-13.704 8.87-13.704 15.637 0 6.767 6.938 8.928 13.704 8.928"/>
        <path d="M568.635 118.219c-5.459 0-11.373-1.08-11.373-6.596 0-5.459 5.914-13.306 11.373-13.306M508.246 61.355c0-4.662-3.753-8.415-8.416-8.415-4.662 0-8.415 3.753-8.415 8.416 0 4.662 3.753 8.415 8.415 8.415 4.606 0 8.416-3.753 8.416-8.416zm-1.649 0c0 3.754-3.071 6.824-6.824 6.824-3.753 0-6.823-3.07-6.823-6.824 0-3.752 3.07-6.823 6.823-6.823 3.81 0 6.824 3.07 6.824 6.824z"/>
        <path d="M502.787 61.356c0 1.649-1.308 2.956-2.957 2.956-1.649 0-2.956-1.307-2.956-2.956 0-1.65 1.307-2.957 2.956-2.957s2.957 1.307 2.957 2.957z"/>
        <path d="M502.958 61.355c0-1.706-1.422-3.127-3.128-3.127-1.706 0-3.127 1.421-3.127 3.127 0 1.706 1.421 3.128 3.127 3.128 1.706 0 3.128-1.365 3.128-3.128zm-.341 0c0 1.536-1.251 2.843-2.843 2.843-1.593 0-2.844-1.25-2.844-2.843 0-1.535 1.251-2.843 2.844-2.843 1.592 0 2.843 1.308 2.843 2.843zM487.32 32.184c0 1.365-1.08 2.446-2.445 2.446-1.364 0-2.445-1.08-2.445-2.446 0-1.364 1.081-2.445 2.445-2.445 1.365.057 2.445 1.138 2.445 2.445zM537.303 22.574c.88 0 1.593-.713 1.593-1.592 0-.88-.713-1.592-1.593-1.592-.879 0-1.592.713-1.592 1.592 0 .88.713 1.592 1.592 1.592zM513.989 97.806c.88 0 1.593-.713 1.593-1.593 0-.879-.713-1.592-1.593-1.592-.879 0-1.592.713-1.592 1.593 0 .879.713 1.592 1.592 1.592zM590.641 81.77l-5.8-5.971-5.8 5.97-5.914-6.084.228-.17 5.686 5.8 5.8-5.914 5.8 5.914 5.8-5.914 5.801 5.914 5.743-5.914 5.8 5.914 5.8-5.914 5.8 5.914 5.8-5.914 5.914 6.027-.228.228-5.686-5.857-5.8 5.97-5.8-5.97-5.8 5.97-5.8-5.97-5.743 5.97-5.801-5.97-5.8 5.97zM668.601 71.876h-.568V87.97h.568V71.876z"/>
        <path d="M677.813 76.823l-17.571 3.355v-.57l17.571-3.354M637.44 19.504h-.284v8.302h.284v-8.302z"/>
        <path d="M641.421 23.541h-8.302v.285h8.302v-.285zM590.13 0l-1.422 20.698h17.344L607.473 0"/>
        <path d="M606.905.569l-1.422 19.561h-16.206L590.698.569M630.73 131.071l-1.478-13.988h-17.287l1.422 13.988"/>
        <path d="M613.956 130.502l-1.422-12.851h16.149l1.479 12.851M645.881 106.034l-2.775-2.775-2.774 2.775 2.774 2.774 2.775-2.774zM652.366 106.027l-2.774-2.774-2.775 2.774 2.775 2.774 2.774-2.774zM658.851 106.019l-2.774-2.774-2.774 2.774 2.774 2.775 2.774-2.775zM668.034 26.05l2.774-2.774-2.774-2.774-2.775 2.774 2.775 2.774zM668.041 32.55l2.774-2.775-2.774-2.774-2.775 2.774 2.775 2.775zM668.008 39.009l2.774-2.775-2.774-2.774-2.775 2.774 2.775 2.775zM624.077 31.958c-.625 0-1.08-.512-1.08-1.08 0-.626.512-1.081 1.08-1.081.626 0 1.081.512 1.081 1.08 0 .626-.512 1.08-1.081 1.08zM624.077 35.71c.597 0 1.081-.483 1.081-1.08 0-.597-.484-1.08-1.081-1.08-.596 0-1.08.483-1.08 1.08 0 .597.484 1.08 1.08 1.08zM624.077 39.464c.597 0 1.081-.484 1.081-1.08 0-.597-.484-1.08-1.081-1.08-.596 0-1.08.483-1.08 1.08 0 .596.484 1.08 1.08 1.08zM624.077 43.217c.597 0 1.081-.484 1.081-1.08 0-.597-.484-1.081-1.081-1.081-.596 0-1.08.484-1.08 1.08 0 .597.484 1.08 1.08 1.08zM624.077 46.97c.597 0 1.081-.484 1.081-1.08 0-.597-.484-1.08-1.081-1.08-.596 0-1.08.483-1.08 1.08 0 .596.484 1.08 1.08 1.08zM624.077 50.723c.597 0 1.081-.484 1.081-1.08 0-.597-.484-1.081-1.081-1.081-.596 0-1.08.484-1.08 1.08 0 .597.484 1.08 1.08 1.08zM649.552 41.624l-13.818 15.467h27.693l-13.875-15.467z"/>
        <path d="M649.552 48.391l-14.216 15.865h28.432l-14.216-15.865zm0 .512l13.477 15.069h-27.01l13.533-15.069zM610.43 100.762l-11.259-10.121v20.186l11.259-10.065z"/>
        <path d="M605.483 100.762l-11.544-10.349v20.698l11.544-10.349zm-.341 0l-10.975 9.838V90.925l10.975 9.837zM602.981 44.865h-21.779V23.086h-8.075V52.94h29.854v-8.075zm-29.285-21.21h6.937v21.779h21.779v6.937h-28.716V23.655zM663.142 90.413h-12.168V78.244h-4.549v16.718h16.717v-4.55zm-16.376-11.828h3.866v12.17h12.169v3.866h-16.035V78.585zM568.635 120.551c6.767 0 10.804-2.161 10.804-8.928 0-6.767-4.037-15.637-10.804-15.637"/>
        <path d="M568.635 98.317c5.459 0 8.473 7.79 8.473 13.306 0 5.459-3.014 6.596-8.473 6.596M682.362 95.986c-6.766 0-13.704 8.87-13.704 15.637 0 6.767 6.938 8.928 13.704 8.928"/>
        <path d="M682.362 118.219c-5.459 0-11.372-1.08-11.372-6.596 0-5.459 5.913-13.306 11.372-13.306M621.973 61.355c0-4.662-3.753-8.415-8.416-8.415-4.662 0-8.415 3.753-8.415 8.416 0 4.662 3.753 8.415 8.415 8.415 4.606 0 8.416-3.753 8.416-8.416zm-1.649 0c0 3.754-3.07 6.824-6.823 6.824-3.753 0-6.824-3.07-6.824-6.824 0-3.752 3.071-6.823 6.824-6.823 3.809 0 6.823 3.07 6.823 6.824z"/>
        <path d="M616.514 61.356c0 1.649-1.307 2.956-2.957 2.956-1.649 0-2.956-1.307-2.956-2.956 0-1.65 1.307-2.957 2.956-2.957 1.65 0 2.957 1.307 2.957 2.957z"/>
        <path d="M616.685 61.355c0-1.706-1.422-3.127-3.128-3.127-1.705 0-3.127 1.421-3.127 3.127 0 1.706 1.422 3.128 3.127 3.128 1.706 0 3.128-1.365 3.128-3.128zm-.341 0c0 1.536-1.251 2.843-2.843 2.843-1.593 0-2.844-1.25-2.844-2.843 0-1.535 1.251-2.843 2.844-2.843 1.592 0 2.843 1.308 2.843 2.843zM601.047 32.184c0 1.365-1.08 2.446-2.445 2.446-1.364 0-2.445-1.08-2.445-2.446 0-1.364 1.081-2.445 2.445-2.445 1.365.057 2.445 1.138 2.445 2.445zM651.03 22.574c.88 0 1.593-.713 1.593-1.592 0-.88-.713-1.592-1.593-1.592-.879 0-1.592.713-1.592 1.592 0 .88.713 1.592 1.592 1.592zM627.716 97.806c.88 0 1.593-.713 1.593-1.593 0-.879-.713-1.592-1.593-1.592-.879 0-1.592.713-1.592 1.593 0 .879.713 1.592 1.592 1.592zM704.368 81.77l-5.8-5.971-5.8 5.97-5.914-6.084.228-.17 5.686 5.8 5.8-5.914 5.8 5.914 5.8-5.914 5.8 5.914 5.744-5.914 5.8 5.914 5.8-5.914 5.8 5.914 5.8-5.914 5.914 6.027-.228.228-5.686-5.857-5.8 5.97-5.8-5.97-5.8 5.97-5.8-5.97-5.744 5.97-5.8-5.97-5.8 5.97zM782.328 71.876h-.568V87.97h.568V71.876z"/>
        <path d="M791.54 76.823l-17.571 3.355v-.57l17.571-3.354M751.167 19.504h-.284v8.302h.284v-8.302z"/>
        <path d="M755.147 23.541h-8.302v.285h8.302v-.285zM703.857 0l-1.422 20.698h17.343L721.2 0"/>
        <path d="M720.631.569L719.21 20.13h-16.207L704.425.569M744.457 131.071l-1.478-13.988h-17.287l1.422 13.988"/>
        <path d="M727.682 130.502l-1.421-12.851h16.149l1.478 12.851M759.608 106.034l-2.775-2.775-2.774 2.775 2.774 2.774 2.775-2.774zM766.093 106.027l-2.775-2.774-2.774 2.774 2.774 2.774 2.775-2.774zM772.578 106.019l-2.774-2.774-2.775 2.774 2.775 2.775 2.774-2.775zM781.761 26.05l2.774-2.774-2.774-2.774-2.775 2.774 2.775 2.774zM781.768 32.55l2.774-2.775-2.774-2.774-2.775 2.774 2.775 2.775zM781.734 39.009l2.775-2.775-2.775-2.774-2.774 2.774 2.774 2.775zM737.804 31.958c-.625 0-1.08-.512-1.08-1.08 0-.626.511-1.081 1.08-1.081.626 0 1.08.512 1.08 1.08 0 .626-.511 1.08-1.08 1.08zM737.804 35.71c.597 0 1.08-.483 1.08-1.08 0-.597-.483-1.08-1.08-1.08-.597 0-1.08.483-1.08 1.08 0 .597.483 1.08 1.08 1.08zM737.804 39.464c.597 0 1.08-.484 1.08-1.08 0-.597-.483-1.08-1.08-1.08-.597 0-1.08.483-1.08 1.08 0 .596.483 1.08 1.08 1.08zM737.804 43.217c.597 0 1.08-.484 1.08-1.08 0-.597-.483-1.081-1.08-1.081-.597 0-1.08.484-1.08 1.08 0 .597.483 1.08 1.08 1.08zM737.804 46.97c.597 0 1.08-.484 1.08-1.08 0-.597-.483-1.08-1.08-1.08-.597 0-1.08.483-1.08 1.08 0 .596.483 1.08 1.08 1.08zM737.804 50.723c.597 0 1.08-.484 1.08-1.08 0-.597-.483-1.081-1.08-1.081-.597 0-1.08.484-1.08 1.08 0 .597.483 1.08 1.08 1.08zM763.279 41.624l-13.818 15.467h27.692l-13.874-15.467z"/>
        <path d="M763.279 48.391l-14.216 15.865h28.432l-14.216-15.865zm0 .512l13.477 15.069h-27.011l13.534-15.069zM724.157 100.762l-11.259-10.121v20.186l11.259-10.065z"/>
        <path d="M719.21 100.762l-11.544-10.349v20.698l11.544-10.349zm-.342 0l-10.974 9.838V90.925l10.974 9.837zM716.708 44.865h-21.779V23.086h-8.075V52.94h29.854v-8.075zm-29.285-21.21h6.937v21.779h21.779v6.937h-28.716V23.655zM776.869 90.413H764.7V78.244h-4.549v16.718h16.718v-4.55zm-16.376-11.828h3.866v12.17h12.169v3.866h-16.035V78.585zM682.362 120.551c6.767 0 10.804-2.161 10.804-8.928 0-6.767-4.037-15.637-10.804-15.637"/>
        <path d="M682.362 98.317c5.459 0 8.473 7.79 8.473 13.306 0 5.459-3.014 6.596-8.473 6.596M796.089 95.986c-6.767 0-13.704 8.87-13.704 15.637 0 6.767 6.937 8.928 13.704 8.928"/>
        <path d="M796.089 118.219c-5.459 0-11.372-1.08-11.372-6.596 0-5.459 5.913-13.306 11.372-13.306M735.7 61.355c0-4.662-3.753-8.415-8.416-8.415s-8.416 3.753-8.416 8.416c0 4.662 3.753 8.415 8.416 8.415 4.606 0 8.416-3.753 8.416-8.416zm-1.649 0c0 3.754-3.071 6.824-6.824 6.824-3.753 0-6.823-3.07-6.823-6.824 0-3.752 3.07-6.823 6.823-6.823 3.81 0 6.824 3.07 6.824 6.824z"/>
        <path d="M730.241 61.356c0 1.649-1.308 2.956-2.957 2.956-1.649 0-2.957-1.307-2.957-2.956 0-1.65 1.308-2.957 2.957-2.957 1.649 0 2.957 1.307 2.957 2.957z"/>
        <path d="M730.412 61.355c0-1.706-1.422-3.127-3.128-3.127-1.706 0-3.127 1.421-3.127 3.127 0 1.706 1.421 3.128 3.127 3.128 1.706 0 3.128-1.365 3.128-3.128zm-.341 0c0 1.536-1.251 2.843-2.844 2.843-1.592 0-2.843-1.25-2.843-2.843 0-1.535 1.251-2.843 2.843-2.843 1.593 0 2.844 1.308 2.844 2.843zM714.774 32.184c0 1.365-1.08 2.446-2.445 2.446-1.365 0-2.445-1.08-2.445-2.446 0-1.364 1.08-2.445 2.445-2.445 1.365.057 2.445 1.138 2.445 2.445zM764.757 22.574c.88 0 1.592-.713 1.592-1.592 0-.88-.712-1.592-1.592-1.592-.879 0-1.592.713-1.592 1.592 0 .88.713 1.592 1.592 1.592zM741.443 97.806c.88 0 1.592-.713 1.592-1.593 0-.879-.712-1.592-1.592-1.592-.879 0-1.592.713-1.592 1.593 0 .879.713 1.592 1.592 1.592zM818.279 81.77l-5.8-5.971-5.8 5.97-5.914-6.084.228-.17 5.686 5.8 5.8-5.914 5.8 5.914 5.8-5.914 5.8 5.914 5.743-5.914 5.801 5.914 5.8-5.914 5.8 5.914 5.8-5.914 5.914 6.027-.228.228-5.686-5.857-5.8 5.97-5.8-5.97-5.8 5.97-5.801-5.97-5.743 5.97-5.8-5.97-5.8 5.97zM896.239 71.876h-.569V87.97h.569V71.876z"/>
        <path d="M905.451 76.823l-17.571 3.355v-.57l17.571-3.354M865.078 19.504h-.285v8.302h.285v-8.302z"/>
        <path d="M869.058 23.541h-8.302v.285h8.302v-.285zM817.767 0l-1.421 20.698h17.343L835.111 0"/>
        <path d="M834.542.569L833.12 20.13h-16.206L818.336.569M858.368 131.071l-1.479-13.988h-17.286l1.421 13.988"/>
        <path d="M841.593 130.502l-1.422-12.851h16.15l1.478 12.851M873.518 106.034l-2.774-2.775-2.774 2.775 2.774 2.774 2.774-2.774zM880.003 106.027l-2.774-2.774-2.774 2.774 2.774 2.774 2.774-2.774zM886.489 106.019l-2.775-2.774-2.774 2.774 2.774 2.775 2.775-2.775zM895.671 26.05l2.775-2.774-2.775-2.774-2.774 2.774 2.774 2.774zM895.678 32.55l2.775-2.775-2.775-2.774-2.774 2.774 2.774 2.775zM895.645 39.009l2.774-2.775-2.774-2.774-2.774 2.774 2.774 2.775zM851.715 31.958c-.626 0-1.081-.512-1.081-1.08 0-.626.512-1.081 1.081-1.081.625 0 1.08.512 1.08 1.08 0 .626-.512 1.08-1.08 1.08zM851.715 35.71c.596 0 1.08-.483 1.08-1.08 0-.597-.484-1.08-1.08-1.08-.597 0-1.081.483-1.081 1.08 0 .597.484 1.08 1.081 1.08zM851.715 39.464c.596 0 1.08-.484 1.08-1.08 0-.597-.484-1.08-1.08-1.08-.597 0-1.081.483-1.081 1.08 0 .596.484 1.08 1.081 1.08zM851.715 43.217c.596 0 1.08-.484 1.08-1.08 0-.597-.484-1.081-1.08-1.081-.597 0-1.081.484-1.081 1.08 0 .597.484 1.08 1.081 1.08zM851.715 46.97c.596 0 1.08-.484 1.08-1.08 0-.597-.484-1.08-1.08-1.08-.597 0-1.081.483-1.081 1.08 0 .596.484 1.08 1.081 1.08zM851.715 50.723c.596 0 1.08-.484 1.08-1.08 0-.597-.484-1.081-1.08-1.081-.597 0-1.081.484-1.081 1.08 0 .597.484 1.08 1.081 1.08zM877.19 41.624l-13.818 15.467h27.692L877.19 41.624z"/>
        <path d="M877.19 48.391l-14.216 15.865h28.432L877.19 48.391zm0 .512l13.476 15.069h-27.01l13.534-15.069zM838.068 100.762l-11.259-10.121v20.186l11.259-10.065z"/>
        <path d="M833.12 100.762l-11.543-10.349v20.698l11.543-10.349zm-.341 0l-10.974 9.838V90.925l10.974 9.837zM830.618 44.865H808.84V23.086h-8.075V52.94h29.853v-8.075zm-29.284-21.21h6.937v21.779h21.779v6.937h-28.716V23.655zM890.78 90.413h-12.169V78.244h-4.549v16.718h16.718v-4.55zm-16.377-11.828h3.867v12.17h12.169v3.866h-16.036V78.585zM796.273 120.551c6.767 0 10.804-2.161 10.804-8.928 0-6.767-4.037-15.637-10.804-15.637"/>
        <path d="M796.273 98.317c5.459 0 8.473 7.79 8.473 13.306 0 5.459-3.014 6.596-8.473 6.596M910 95.986c-6.767 0-13.704 8.87-13.704 15.637 0 6.767 6.937 8.928 13.704 8.928"/>
        <path d="M910 118.219c-5.459 0-11.373-1.08-11.373-6.596 0-5.459 5.914-13.306 11.373-13.306M849.611 61.355c0-4.662-3.753-8.415-8.416-8.415s-8.416 3.753-8.416 8.416c0 4.662 3.753 8.415 8.416 8.415 4.606 0 8.416-3.753 8.416-8.416zm-1.649 0c0 3.754-3.071 6.824-6.824 6.824-3.753 0-6.823-3.07-6.823-6.824 0-3.752 3.07-6.823 6.823-6.823 3.81 0 6.824 3.07 6.824 6.824z"/>
        <path d="M844.152 61.356c0 1.649-1.308 2.956-2.957 2.956-1.649 0-2.957-1.307-2.957-2.956 0-1.65 1.308-2.957 2.957-2.957 1.649 0 2.957 1.307 2.957 2.957z"/>
        <path d="M844.323 61.355c0-1.706-1.422-3.127-3.128-3.127-1.706 0-3.127 1.421-3.127 3.127 0 1.706 1.421 3.128 3.127 3.128 1.706 0 3.128-1.365 3.128-3.128zm-.342 0c0 1.536-1.251 2.843-2.843 2.843s-2.843-1.25-2.843-2.843c0-1.535 1.251-2.843 2.843-2.843s2.843 1.308 2.843 2.843zM828.685 32.184c0 1.365-1.08 2.446-2.445 2.446-1.365 0-2.445-1.08-2.445-2.446 0-1.364 1.08-2.445 2.445-2.445 1.365.057 2.445 1.138 2.445 2.445zM878.668 22.574c.879 0 1.592-.713 1.592-1.592 0-.88-.713-1.592-1.592-1.592-.879 0-1.592.713-1.592 1.592 0 .88.713 1.592 1.592 1.592zM855.354 97.806c.879 0 1.592-.713 1.592-1.593 0-.879-.713-1.592-1.592-1.592-.879 0-1.592.713-1.592 1.593 0 .879.713 1.592 1.592 1.592zM932.006 81.77l-5.8-5.971-5.8 5.97-5.914-6.084.228-.17 5.686 5.8 5.8-5.914 5.8 5.914 5.8-5.914 5.8 5.914 5.744-5.914 5.8 5.914 5.8-5.914 5.8 5.914 5.8-5.914 5.914 6.027-.228.228-5.686-5.857-5.8 5.97-5.8-5.97-5.8 5.97-5.8-5.97-5.744 5.97-5.8-5.97-5.8 5.97zM1009.97 71.876h-.57V87.97h.57V71.876z"/>
        <path d="M1019.18 76.823l-17.57 3.355v-.57l17.57-3.354M978.805 19.504h-.284v8.302h.284v-8.302z"/>
        <path d="M982.785 23.541h-8.302v.285h8.302v-.285zM931.494 0l-1.421 20.698h17.343L948.838 0"/>
        <path d="M948.269.569l-1.421 19.561h-16.207L932.063.569M972.095 131.071l-1.479-13.988H953.33l1.422 13.988"/>
        <path d="M955.32 130.502l-1.421-12.851h16.149l1.478 12.851M987.245 106.034l-2.774-2.775-2.774 2.775 2.774 2.774 2.774-2.774zM993.731 106.027l-2.775-2.774-2.774 2.774 2.774 2.774 2.775-2.774zM1000.22 106.019l-2.778-2.774-2.775 2.774 2.775 2.775 2.778-2.775zM1009.4 26.05l2.77-2.774-2.77-2.774-2.78 2.774 2.78 2.774zM1009.41 32.55l2.77-2.775-2.77-2.774-2.78 2.774 2.78 2.775zM1009.37 39.009l2.78-2.775-2.78-2.774-2.77 2.774 2.77 2.775zM965.442 31.958c-.626 0-1.081-.512-1.081-1.08 0-.626.512-1.081 1.081-1.081.625 0 1.08.512 1.08 1.08 0 .626-.512 1.08-1.08 1.08zM965.442 35.71c.597 0 1.08-.483 1.08-1.08 0-.597-.483-1.08-1.08-1.08-.597 0-1.081.483-1.081 1.08 0 .597.484 1.08 1.081 1.08zM965.442 39.464c.597 0 1.08-.484 1.08-1.08 0-.597-.483-1.08-1.08-1.08-.597 0-1.081.483-1.081 1.08 0 .596.484 1.08 1.081 1.08zM965.442 43.217c.597 0 1.08-.484 1.08-1.08 0-.597-.483-1.081-1.08-1.081-.597 0-1.081.484-1.081 1.08 0 .597.484 1.08 1.081 1.08zM965.442 46.97c.597 0 1.08-.484 1.08-1.08 0-.597-.483-1.08-1.08-1.08-.597 0-1.081.483-1.081 1.08 0 .596.484 1.08 1.081 1.08zM965.442 50.723c.597 0 1.08-.484 1.08-1.08 0-.597-.483-1.081-1.08-1.081-.597 0-1.081.484-1.081 1.08 0 .597.484 1.08 1.081 1.08zM990.917 41.624l-13.818 15.467h27.691l-13.873-15.467z"/>
        <path d="M990.917 48.391l-14.216 15.865h28.429l-14.213-15.865zm0 .512l13.473 15.069h-27.007l13.534-15.069zM951.794 100.762l-11.258-10.121v20.186l11.258-10.065z"/>
        <path d="M946.847 100.762l-11.543-10.349v20.698l11.543-10.349zm-.341 0l-10.974 9.838V90.925l10.974 9.837zM944.346 44.865h-21.779V23.086h-8.075V52.94h29.854v-8.075zm-29.285-21.21h6.937v21.779h21.779v6.937h-28.716V23.655zM1004.51 90.413h-12.172V78.244h-4.549v16.718h16.721v-4.55zm-16.38-11.828h3.867v12.17h12.173v3.866h-16.04V78.585zM910 120.551c6.767 0 10.804-2.161 10.804-8.928 0-6.767-4.037-15.637-10.804-15.637"/>
        <path d="M910 98.317c5.459 0 8.473 7.79 8.473 13.306 0 5.459-3.014 6.596-8.473 6.596M1023.73 95.986c-6.77 0-13.71 8.87-13.71 15.637 0 6.767 6.94 8.928 13.71 8.928"/>
        <path d="M1023.73 118.219c-5.46 0-11.38-1.08-11.38-6.596 0-5.459 5.92-13.306 11.38-13.306M963.338 61.355c0-4.662-3.753-8.415-8.416-8.415s-8.416 3.753-8.416 8.416c0 4.662 3.753 8.415 8.416 8.415 4.606 0 8.416-3.753 8.416-8.416zm-1.649 0c0 3.754-3.071 6.824-6.824 6.824-3.753 0-6.823-3.07-6.823-6.824 0-3.752 3.07-6.823 6.823-6.823 3.81 0 6.824 3.07 6.824 6.824z"/>
        <path d="M957.879 61.356c0 1.649-1.308 2.956-2.957 2.956-1.649 0-2.957-1.307-2.957-2.956 0-1.65 1.308-2.957 2.957-2.957 1.649 0 2.957 1.307 2.957 2.957z"/>
        <path d="M958.05 61.355c0-1.706-1.422-3.127-3.128-3.127-1.706 0-3.127 1.421-3.127 3.127 0 1.706 1.421 3.128 3.127 3.128 1.706 0 3.128-1.365 3.128-3.128zm-.342 0c0 1.536-1.251 2.843-2.843 2.843s-2.843-1.25-2.843-2.843c0-1.535 1.251-2.843 2.843-2.843s2.843 1.308 2.843 2.843zM942.412 32.184c0 1.365-1.08 2.446-2.445 2.446-1.365 0-2.445-1.08-2.445-2.446 0-1.364 1.08-2.445 2.445-2.445 1.365.057 2.445 1.138 2.445 2.445zM992.395 22.574c.879 0 1.592-.713 1.592-1.592 0-.88-.713-1.592-1.592-1.592-.879 0-1.592.713-1.592 1.592 0 .88.713 1.592 1.592 1.592zM969.081 97.806c.88 0 1.592-.713 1.592-1.593 0-.879-.712-1.592-1.592-1.592-.879 0-1.592.713-1.592 1.593 0 .879.713 1.592 1.592 1.592zM1046.01 81.77l-5.8-5.971-5.8 5.97-5.92-6.084.23-.17 5.69 5.8 5.8-5.914 5.8 5.914 5.8-5.914 5.8 5.914 5.74-5.914 5.8 5.914 5.8-5.914 5.8 5.914 5.8-5.914 5.91 6.027-.22.228-5.69-5.857-5.8 5.97-5.8-5.97-5.8 5.97-5.8-5.97-5.74 5.97-5.8-5.97-5.8 5.97zM1123.97 71.876h-.57V87.97h.57V71.876z"/>
        <path d="M1133.18 76.823l-17.57 3.355v-.57l17.57-3.354M1092.8 19.504h-.28v8.302h.28v-8.302z"/>
        <path d="M1096.79 23.541h-8.31v.285h8.31v-.285zM1045.49 0l-1.42 20.698h17.35L1062.84 0"/>
        <path d="M1062.27.569l-1.42 19.561h-16.21l1.42-19.561M1086.09 131.071l-1.47-13.988h-17.29l1.42 13.988"/>
        <path d="M1069.32 130.502l-1.42-12.851h16.15l1.48 12.851M1101.25 106.034l-2.78-2.775-2.77 2.775 2.77 2.774 2.78-2.774zM1107.73 106.027l-2.77-2.774-2.78 2.774 2.78 2.774 2.77-2.774zM1114.22 106.019l-2.78-2.774-2.77 2.774 2.77 2.775 2.78-2.775zM1123.4 26.05l2.77-2.774-2.77-2.774-2.78 2.774 2.78 2.774zM1123.41 32.55l2.77-2.775-2.77-2.774-2.78 2.774 2.78 2.775zM1123.37 39.009l2.78-2.775-2.78-2.774-2.77 2.774 2.77 2.775zM1079.44 31.958c-.62 0-1.08-.512-1.08-1.08 0-.626.51-1.081 1.08-1.081.63 0 1.08.512 1.08 1.08 0 .626-.51 1.08-1.08 1.08zM1079.44 35.71c.6 0 1.08-.483 1.08-1.08 0-.597-.48-1.08-1.08-1.08-.59 0-1.08.483-1.08 1.08 0 .597.49 1.08 1.08 1.08zM1079.44 39.464c.6 0 1.08-.484 1.08-1.08 0-.597-.48-1.08-1.08-1.08-.59 0-1.08.483-1.08 1.08 0 .596.49 1.08 1.08 1.08zM1079.44 43.217c.6 0 1.08-.484 1.08-1.08 0-.597-.48-1.081-1.08-1.081-.59 0-1.08.484-1.08 1.08 0 .597.49 1.08 1.08 1.08zM1079.44 46.97c.6 0 1.08-.484 1.08-1.08 0-.597-.48-1.08-1.08-1.08-.59 0-1.08.483-1.08 1.08 0 .596.49 1.08 1.08 1.08zM1079.44 50.723c.6 0 1.08-.484 1.08-1.08 0-.597-.48-1.081-1.08-1.081-.59 0-1.08.484-1.08 1.08 0 .597.49 1.08 1.08 1.08zM1104.92 41.624l-13.82 15.467h27.69l-13.87-15.467z"/>
        <path d="M1104.92 48.391l-14.22 15.865h28.43l-14.21-15.865zm0 .512l13.47 15.069h-27.01l13.54-15.069zM1065.79 100.762l-11.25-10.121v20.186l11.25-10.065z"/>
        <path d="M1060.85 100.762l-11.55-10.349v20.698l11.55-10.349zm-.34 0l-10.98 9.838V90.925l10.98 9.837zM1058.35 44.865h-21.78V23.086h-8.08V52.94h29.86v-8.075zm-29.29-21.21h6.94v21.779h21.78v6.937h-28.72V23.655zM1118.51 90.413h-12.17V78.244h-4.55v16.718h16.72v-4.55zm-16.38-11.828h3.87v12.17h12.17v3.866h-16.04V78.585zM1024 120.551c6.77 0 10.8-2.161 10.8-8.928 0-6.767-4.03-15.637-10.8-15.637"/>
        <path d="M1024 98.317c5.46 0 8.47 7.79 8.47 13.306 0 5.459-3.01 6.596-8.47 6.596M1137.73 95.986c-6.77 0-13.71 8.87-13.71 15.637 0 6.767 6.94 8.928 13.71 8.928"/>
        <path d="M1137.73 118.219c-5.46 0-11.38-1.08-11.38-6.596 0-5.459 5.92-13.306 11.38-13.306M1077.34 61.355c0-4.662-3.76-8.415-8.42-8.415s-8.41 3.753-8.41 8.416c0 4.662 3.75 8.415 8.41 8.415 4.61 0 8.42-3.753 8.42-8.416zm-1.65 0c0 3.754-3.07 6.824-6.82 6.824-3.76 0-6.83-3.07-6.83-6.824 0-3.752 3.07-6.823 6.83-6.823 3.81 0 6.82 3.07 6.82 6.824z"/>
        <path d="M1071.88 61.356c0 1.649-1.31 2.956-2.96 2.956s-2.95-1.307-2.95-2.956c0-1.65 1.3-2.957 2.95-2.957 1.65 0 2.96 1.307 2.96 2.957z"/>
        <path d="M1072.05 61.355c0-1.706-1.42-3.127-3.13-3.127-1.7 0-3.13 1.421-3.13 3.127 0 1.706 1.43 3.128 3.13 3.128 1.71 0 3.13-1.365 3.13-3.128zm-.34 0c0 1.536-1.25 2.843-2.84 2.843-1.6 0-2.85-1.25-2.85-2.843 0-1.535 1.25-2.843 2.85-2.843 1.59 0 2.84 1.308 2.84 2.843zM1056.41 32.184c0 1.365-1.08 2.446-2.44 2.446-1.37 0-2.45-1.08-2.45-2.446 0-1.364 1.08-2.445 2.45-2.445 1.36.057 2.44 1.138 2.44 2.445zM1106.4 22.574c.87 0 1.59-.713 1.59-1.592 0-.88-.72-1.592-1.59-1.592-.88 0-1.6.713-1.6 1.592 0 .88.72 1.592 1.6 1.592zM1083.08 97.806c.88 0 1.59-.713 1.59-1.593 0-.879-.71-1.592-1.59-1.592-.88 0-1.59.713-1.59 1.593 0 .879.71 1.592 1.59 1.592z"/>
    </g>
</svg>
