<?xml version="1.0" encoding="UTF-8" standalone="no"?>
<!DOCTYPE svg PUBLIC "-//W3C//DTD SVG 1.1//EN" "http://www.w3.org/Graphics/SVG/1.1/DTD/svg11.dtd">
<svg version="1.1" xmlns="http://www.w3.org/2000/svg" xmlns:xlink="http://www.w3.org/1999/xlink" preserveAspectRatio="xMidYMid meet" viewBox="1 1.4299999999999997 24 23.127527847992347" width="20" height="19.13"><defs><path d="M13 18.43C10.33 20.21 8.85 21.19 8.55 21.39C8.09 21.7 7.47 21.57 7.17 21.11C7.06 20.95 7 20.76 7 20.56C7 20.35 7 18.64 7 18.43C4 18.43 2 16.43 2 13.43C2 12.83 2 8.03 2 7.43C2 4.43 4 2.43 7 2.43C8 2.43 16 2.43 17 2.43C20 2.43 22 4.43 22 7.43C22 8.03 22 12.83 22 13.43C22 16.43 20 18.43 17 18.43C16.47 18.43 15.13 18.43 13 18.43Z" id="bVRLSgzGo"></path></defs><g><g><use xlink:href="#bVRLSgzGo" opacity="1" fill="#000000" fill-opacity="0"></use><g><use xlink:href="#bVRLSgzGo" opacity="1" fill-opacity="0" stroke="#139eca" stroke-width="1.5" stroke-opacity="1"></use></g></g></g></svg>