<?xml version="1.0" encoding="UTF-8" standalone="no"?>
<!DOCTYPE svg PUBLIC "-//W3C//DTD SVG 1.1//EN" "http://www.w3.org/Graphics/SVG/1.1/DTD/svg11.dtd">
<svg version="1.1" xmlns="http://www.w3.org/2000/svg" xmlns:xlink="http://www.w3.org/1999/xlink" preserveAspectRatio="xMidYMid meet" viewBox="1.38 1.6479810846020784 23.23887304843844 22.70201891539792" width="19.24" height="18.7"><defs><path d="M7.48 18.35C9.34 19.79 10.37 20.59 10.58 20.75C10.98 21.15 11.88 21.35 12.48 21.35C12.86 21.35 15.9 21.35 16.28 21.35C17.48 21.35 18.78 20.45 19.08 19.25C19.32 18.52 21.24 12.68 21.48 11.95C21.98 10.55 21.08 9.35 19.58 9.35C19.18 9.35 15.98 9.35 15.58 9.35C14.98 9.35 14.48 8.85 14.58 8.15C14.63 7.83 15.03 5.27 15.08 4.95C15.28 4.05 14.68 3.05 13.78 2.75C12.98 2.45 11.98 2.85 11.58 3.45C11.31 3.86 9.94 5.89 7.48 9.55" id="aZRaWu9AR"></path><path d="M2.38 8.55C2.38 7.15 2.98 6.65 4.38 6.65C4.48 6.65 5.28 6.65 5.38 6.65C6.78 6.65 7.38 7.15 7.38 8.55C7.38 9.53 7.38 17.37 7.38 18.35C7.38 19.75 6.78 20.25 5.38 20.25C5.28 20.25 4.48 20.25 4.38 20.25C2.98 20.25 2.38 19.75 2.38 18.35C2.38 16.39 2.38 9.53 2.38 8.55Z" id="c1UeU1icjp"></path></defs><g><g><use xlink:href="#aZRaWu9AR" opacity="1" fill="#s" fill-opacity="0"></use><g><use xlink:href="#aZRaWu9AR" opacity="1" fill-opacity="0" stroke="#139eca" stroke-width="1.5" stroke-opacity="1"></use></g></g><g><use xlink:href="#c1UeU1icjp" opacity="1" fill="#000000" fill-opacity="0"></use><g><use xlink:href="#c1UeU1icjp" opacity="1" fill-opacity="0" stroke="#139eca" stroke-width="1.5" stroke-opacity="1"></use></g></g></g></svg>