<svg xmlns="http://www.w3.org/2000/svg" viewBox="0 0 1966.95 1921.71"><defs><style>.cls-1{fill:#139eca;}</style></defs><g id="Layer_3" data-name="Layer 3"><path class="cls-1" d="M525.09,643.65V1651.21c0,135.48-54.67,189-181.15,194.79H192.2c-126.49-5.8-181.15-59.31-181.15-194.79V643.65c0-143.95,61.67-195.33,205.61-195.33H319.48C463.4,448.32,525.09,499.7,525.09,643.65Z" transform="translate(-11.05 -58.49)"/><path class="cls-1" d="M1978,926.86v18.81a238.09,238.09,0,0,1-14.07,69.18c-24.68,75.07-222.09,675.48-246.74,750.55-28.9,115.58-148.06,204.09-264.45,214.81h-440c-59.37-4.72-133.79-24.92-169.46-60.61-21.56-16.43-127.13-98.4-317.72-246v-907Q904,203.59,946.08,141c41.13-61.69,143.95-102.8,226.2-72,92.54,30.85,154.2,133.67,133.64,226.2-5.13,32.9-46.26,296.09-51.39,329-10.28,72,41.13,123.38,102.8,123.38h411.25C1890,747.55,1973.24,824.06,1978,926.86Z" transform="translate(-11.05 -58.49)"/></g></svg>